<?xml version="1.0" encoding="utf-8"?>
<!-- Generator: Adobe Illustrator 28.2.0, SVG Export Plug-In . SVG Version: 6.00 Build 0)  -->
<svg version="1.1" id="Layer_2_00000120547385276440964590000001356598774750474165_"
	 xmlns="http://www.w3.org/2000/svg" xmlns:xlink="http://www.w3.org/1999/xlink" x="0px" y="0px" viewBox="0 0 584.7 584.7"
	 style="enable-background:new 0 0 584.7 584.7;" xml:space="preserve">
<style type="text/css">
	.st0{fill:#214A7C;}
	.st1{fill:#721F45;}
	.st2{fill:#39B54A;}
</style>
<g>
	<g>
		<path class="st0" d="M193.6,178.7c39.2,0,67.8,17.4,86.6,42.6v-12.6c0-14.5,10.6-25.2,25.2-25.2H331v235.2
			c0,82.8-46.9,124.4-132.6,124.4c-56.6,0-94.9-19.8-112.8-33.4l5.3-11.1c7.3-15.5,23.2-18.9,38.2-13.6c16,6.8,37.7,15,65.8,15
			c54.7,0,85.2-24.7,85.2-83.7v-20.8c-18.9,24.7-47.4,41.1-86.6,41.1c-65.8,0-116.1-49.4-116.1-128.7
			C77.5,228.6,127.8,178.7,193.6,178.7z M280.7,308.4c0-48.9-23.7-84.2-73.6-84.2c-50.8,0-78.4,35.3-78.4,84.2
			c0,47.4,27.6,83.2,78.4,83.2C257,391.7,280.7,355.9,280.7,308.4z"/>
		<path class="st1" d="M362.5,183.6h25.6c14.5,0,25.2,10.6,25.2,25.2v30.5c14.5-27.6,40.7-57.6,93.9-57.6v28.1
			c0,14.5-9.2,25.6-24.7,26.6c-8.2,1.5-17.9,4.4-25.2,8.7c-27.1,12.1-44,43.6-44,94.4V411c0,14.5-10.6,25.2-25.2,25.2h-25.6
			L362.5,183.6L362.5,183.6z"/>
		<polygon class="st2" points="434.9,188.1 384.2,123.7 237.2,174.3 423.3,41.6 		"/>
	</g>
</g>
</svg>
